<?xml version="1.0" encoding="utf-8"?>
<!-- Generator: Adobe Illustrator 25.4.1, SVG Export Plug-In . SVG Version: 6.00 Build 0)  -->
<svg version="1.1" id="Calque_1" xmlns="http://www.w3.org/2000/svg" xmlns:xlink="http://www.w3.org/1999/xlink" x="0px" y="0px"
	 viewBox="0 0 841.89 595.28" style="enable-background:new 0 0 841.89 595.28;" xml:space="preserve">
<style type="text/css">
	.st0{fill:url(#SVGID_1_);}
	.st1{fill:#FFFFFF;}
</style>
<g>
	<g>
		<linearGradient id="SVGID_1_" gradientUnits="userSpaceOnUse" x1="301.8628" y1="108.5446" x2="530.3948" y2="504.3738">
			<stop  offset="0" style="stop-color:#F1C81E"/>
			<stop  offset="0.785" style="stop-color:#234789"/>
		</linearGradient>
		<path class="st0" d="M234.98,147.16h107.87l71.46,101.04h3.64l71.46-101.04h107.87v318.6h-106.5V299.17h-2.73l-70.09,92.4h-3.64
			l-70.09-92.4h-2.73v166.59H234.98V147.16z"/>
	</g>
	<g>
		<path class="st1" d="M251.68,450.89h28.54v6.86h-34.64v-4.28c-1.24-1.87-1.86-4.19-1.86-6.97c0-3.24,0.81-5.9,2.43-8
			c-1.62-2.05-2.43-4.68-2.43-7.92c0-3.24,1.11-5.96,3.34-8.19c2.05-1.99,4.45-3.04,7.2-3.14h25.96v6.86h-27.43
			c-2.1,0.3-3.15,1.79-3.15,4.47c0,2.22,0.99,3.75,2.96,4.58h27.62v6.86h-27.43v0.04c-2.1,0.28-3.15,1.76-3.15,4.44
			C249.63,448.37,250.31,449.83,251.68,450.89z"/>
		<path class="st1" d="M242.73,393.14c0-5.53,1.9-10.18,5.69-13.94c3.79-3.76,8.3-5.65,13.53-5.65c5.18,0,9.67,1.88,13.47,5.65
			c3.8,3.77,5.7,8.42,5.7,13.94c0,5.48-1.9,10.13-5.7,13.93c-3.8,3.8-8.29,5.7-13.47,5.7c-5.23,0-9.74-1.9-13.53-5.7
			C244.63,403.27,242.73,398.62,242.73,393.14z M252.59,402.01c2.53,2.5,5.65,3.75,9.36,3.75c3.69,0,6.78-1.25,9.29-3.75
			c2.5-2.5,3.75-5.46,3.75-8.87c0-3.38-1.25-6.33-3.75-8.85c-2.5-2.51-5.6-3.77-9.29-3.77c-3.71,0-6.83,1.25-9.36,3.77
			c-2.53,2.51-3.79,5.46-3.79,8.85C248.8,396.55,250.06,399.51,252.59,402.01z"/>
		<path class="st1" d="M261.83,361.84h0.11c3.69,0,6.78-1.25,9.29-3.75c2.5-2.5,3.75-5.45,3.75-8.86c0-3.38-1.28-6.36-3.83-8.91
			c-0.35-0.35-1.15-1.03-2.39-2.04l2.28-6.44c1.62,0.96,3.04,2.07,4.28,3.34c3.87,3.84,5.8,8.53,5.8,14.06
			c0,5.48-1.9,10.12-5.7,13.93c-3.8,3.8-8.29,5.7-13.47,5.7c-5.23,0-9.74-1.9-13.53-5.7c-3.79-3.8-5.69-8.45-5.69-13.93
			c0-5.53,1.92-10.22,5.76-14.06c3.34-3.31,7.78-4.96,13.34-4.96V361.84z M255.84,360.63v-22.7c-4.7,1.62-7.05,5.38-7.05,11.29
			C248.8,355.16,251.15,358.96,255.84,360.63z"/>
		<path class="st1" d="M270.95,457.75v-6.86h23.87c-4.55-2.7-6.82-6.8-6.82-12.32c0-5.51,1.9-10.15,5.69-13.94s8.3-5.68,13.53-5.68
			c5.18,0,9.67,1.89,13.47,5.68s5.7,8.44,5.7,13.94c0,5.51-2.29,9.61-6.86,12.32h5.95v6.86H270.95z M304.3,450.89h5.84
			c2.43-0.45,4.57-1.63,6.44-3.52c2.45-2.48,3.68-5.41,3.68-8.79c0-3.38-1.25-6.33-3.75-8.85c-2.5-2.51-5.6-3.77-9.29-3.77
			c-3.71,0-6.83,1.26-9.36,3.77c-2.53,2.51-3.79,5.46-3.79,8.85c0,3.39,1.29,6.37,3.86,8.94
			C299.73,449.31,301.85,450.44,304.3,450.89z"/>
		<path class="st1" d="M325.48,374.5v6.86h-6.06c4.65,2.7,6.97,6.82,6.97,12.35c0,5.48-1.9,10.12-5.7,13.93
			c-3.8,3.8-8.29,5.7-13.47,5.7c-5.23,0-9.74-1.9-13.53-5.7c-3.79-3.8-5.69-8.44-5.69-13.93c0-5.53,2.3-9.65,6.9-12.35h-4.05v-6.86
			H325.48z M309.94,381.36h-5.53c-2.5,0.48-4.66,1.63-6.48,3.45c-2.57,2.55-3.86,5.52-3.86,8.9c0,3.41,1.26,6.37,3.79,8.87
			c2.53,2.5,5.65,3.75,9.36,3.75c3.69,0,6.78-1.25,9.29-3.75c2.5-2.5,3.75-5.46,3.75-8.87c0-3.38-1.28-6.35-3.83-8.9
			C314.6,382.99,312.44,381.84,309.94,381.36z"/>
		<path class="st1" d="M296.95,360.51h28.54v6.86h-34.64v-4.28c-1.24-1.87-1.86-4.19-1.86-6.97c0-3.24,0.81-5.9,2.43-8
			c-1.62-2.05-2.43-4.68-2.43-7.92s1.11-5.96,3.34-8.19c2.05-1.99,4.45-3.04,7.2-3.14h25.96v6.86h-27.43
			c-2.1,0.3-3.15,1.79-3.15,4.47c0,2.22,0.99,3.75,2.96,4.58h27.62v6.86h-27.43v0.04c-2.1,0.28-3.15,1.76-3.15,4.44
			C294.9,357.99,295.58,359.45,296.95,360.51z"/>
		<path class="st1" d="M270.95,321.37v-6.86h23.87c-4.55-2.7-6.82-6.8-6.82-12.32c0-5.51,1.9-10.15,5.69-13.94s8.3-5.68,13.53-5.68
			c5.18,0,9.67,1.89,13.47,5.68s5.7,8.44,5.7,13.94c0,5.51-2.29,9.61-6.86,12.32h5.95v6.86H270.95z M304.3,314.51h5.84
			c2.43-0.45,4.57-1.63,6.44-3.52c2.45-2.48,3.68-5.41,3.68-8.79c0-3.38-1.25-6.33-3.75-8.85c-2.5-2.51-5.6-3.77-9.29-3.77
			c-3.71,0-6.83,1.26-9.36,3.77c-2.53,2.51-3.79,5.46-3.79,8.85c0,3.39,1.29,6.37,3.86,8.94
			C299.73,312.93,301.85,314.06,304.3,314.51z"/>
		<path class="st1" d="M325.48,238.12v6.86h-6.06c4.65,2.7,6.97,6.82,6.97,12.35c0,5.48-1.9,10.12-5.7,13.93
			c-3.8,3.8-8.29,5.7-13.47,5.7c-5.23,0-9.74-1.9-13.53-5.7c-3.79-3.8-5.69-8.44-5.69-13.93c0-5.53,2.3-9.65,6.9-12.35h-4.05v-6.86
			H325.48z M309.94,244.98h-5.53c-2.5,0.48-4.66,1.63-6.48,3.45c-2.57,2.55-3.86,5.52-3.86,8.9c0,3.41,1.26,6.37,3.79,8.87
			c2.53,2.5,5.65,3.75,9.36,3.75c3.69,0,6.78-1.25,9.29-3.75c2.5-2.5,3.75-5.46,3.75-8.87c0-3.38-1.28-6.35-3.83-8.9
			C314.6,246.61,312.44,245.46,309.94,244.98z"/>
	</g>
	<g>
		<path class="st1" d="M623.16,163.4l18.55,7.78l-1.42,8.06l-26.02-12.96l1.18-6.71l30.54-12.93l-1.56,8.83L623.16,163.4z"/>
		<path class="st1" d="M673.36,162.88l-19.49-7.89l1.39-7.96l26.93,12.96l-1.18,6.71l-31.41,12.93l1.53-8.69L673.36,162.88z"/>
	</g>
</g>
</svg>
